<svg viewBox="0 0 500 140" xmlns="http://www.w3.org/2000/svg"><g transform="translate(0, 120) rotate(-90, 0, 0)"><line x1="10" y1="10" x2="10" y2="490" stroke="black"/><line x1="30" y1="10" x2="30" y2="490" stroke="black"/><line x1="50" y1="10" x2="50" y2="490" stroke="black"/><line x1="70" y1="10" x2="70" y2="490" stroke="black"/><line x1="90" y1="10" x2="90" y2="490" stroke="black"/><line x1="110" y1="10" x2="110" y2="490" stroke="black"/><line x1="10" y1="10" x2="110" y2="10" stroke="black" stroke-width="1"/><line x1="10" y1="40" x2="110" y2="40" stroke="black" stroke-width="2"/><line x1="10" y1="70" x2="110" y2="70" stroke="black" stroke-width="1"/><line x1="10" y1="100" x2="110" y2="100" stroke="black" stroke-width="1"/><line x1="10" y1="130" x2="110" y2="130" stroke="black" stroke-width="1"/><line x1="10" y1="160" x2="110" y2="160" stroke="black" stroke-width="1"/><line x1="10" y1="190" x2="110" y2="190" stroke="black" stroke-width="1"/><line x1="10" y1="220" x2="110" y2="220" stroke="black" stroke-width="1"/><line x1="10" y1="250" x2="110" y2="250" stroke="black" stroke-width="1"/><line x1="10" y1="280" x2="110" y2="280" stroke="black" stroke-width="1"/><line x1="10" y1="310" x2="110" y2="310" stroke="black" stroke-width="1"/><line x1="10" y1="340" x2="110" y2="340" stroke="black" stroke-width="1"/><line x1="10" y1="370" x2="110" y2="370" stroke="black" stroke-width="1"/><line x1="10" y1="400" x2="110" y2="400" stroke="black" stroke-width="1"/><line x1="10" y1="430" x2="110" y2="430" stroke="black" stroke-width="1"/><line x1="10" y1="460" x2="110" y2="460" stroke="black" stroke-width="1"/><line x1="10" y1="490" x2="110" y2="490" stroke="black" stroke-width="1"/><text x="-10" y="29.0" font-family="arial" font-size="12px" text-anchor="middle" transform="rotate(90, -10, 25.0)">0</text>
<circle cx="50" cy="25.0" r="8.0" stroke="green" fill="white" /><text x="50" y="29.0" fill="green" font-family="arial" font-size="12px" text-anchor="middle" transform="rotate(90, 50, 25.0)">D</text><circle cx="70" cy="25.0" r="8.0" stroke="red" fill="white" /><text x="70" y="29.0" fill="red" font-family="arial" font-size="12px" text-anchor="middle" transform="rotate(90, 70, 25.0)">G</text><circle cx="90" cy="25.0" r="8.0" stroke="black" fill="white" /><text x="90" y="29.0" fill="black" font-family="arial" font-size="12px" text-anchor="middle" transform="rotate(90, 90, 25.0)">B</text><text x="-10" y="59.0" font-family="arial" font-size="12px" text-anchor="middle" transform="rotate(90, -10, 55.0)">1</text>
<circle cx="10" cy="55.0" r="8.0" stroke="magenta" fill="white" /><text x="10" y="59.0" fill="magenta" font-family="arial" font-size="12px" text-anchor="middle" transform="rotate(90, 10, 55.0)">F</text><circle cx="110" cy="55.0" r="8.0" stroke="magenta" fill="white" /><text x="110" y="59.0" fill="magenta" font-family="arial" font-size="12px" text-anchor="middle" transform="rotate(90, 110, 55.0)">F</text><text x="-10" y="89.0" font-family="arial" font-size="12px" text-anchor="middle" transform="rotate(90, -10, 85.0)">2</text>
<circle cx="30" cy="85.0" r="8.0" stroke="black" fill="white" /><text x="30" y="89.0" fill="black" font-family="arial" font-size="12px" text-anchor="middle" transform="rotate(90, 30, 85.0)">B</text><text x="-10" y="119.0" font-family="arial" font-size="12px" text-anchor="middle" transform="rotate(90, -10, 115.0)">3</text>
<circle cx="10" cy="115.0" r="8.0" stroke="red" fill="white" /><text x="10" y="119.0" fill="red" font-family="arial" font-size="12px" text-anchor="middle" transform="rotate(90, 10, 115.0)">G</text><circle cx="50" cy="115.0" r="8.0" stroke="magenta" fill="white" /><text x="50" y="119.0" fill="magenta" font-family="arial" font-size="12px" text-anchor="middle" transform="rotate(90, 50, 115.0)">F</text><circle cx="90" cy="115.0" r="8.0" stroke="green" fill="white" /><text x="90" y="119.0" fill="green" font-family="arial" font-size="12px" text-anchor="middle" transform="rotate(90, 90, 115.0)">D</text><circle cx="110" cy="115.0" r="8.0" stroke="red" fill="white" /><text x="110" y="119.0" fill="red" font-family="arial" font-size="12px" text-anchor="middle" transform="rotate(90, 110, 115.0)">G</text><text x="-10" y="149.0" font-family="arial" font-size="12px" text-anchor="middle" transform="rotate(90, -10, 145.0)">4</text>
<circle cx="70" cy="145.0" r="8.0" stroke="black" fill="white" /><text x="70" y="149.0" fill="black" font-family="arial" font-size="12px" text-anchor="middle" transform="rotate(90, 70, 145.0)">B</text><text x="-10" y="179.0" font-family="arial" font-size="12px" text-anchor="middle" transform="rotate(90, -10, 175.0)">5</text>
<circle cx="30" cy="175.0" r="8.0" stroke="green" fill="white" /><text x="30" y="179.0" fill="green" font-family="arial" font-size="12px" text-anchor="middle" transform="rotate(90, 30, 175.0)">D</text><circle cx="50" cy="175.0" r="8.0" stroke="red" fill="white" /><text x="50" y="179.0" fill="red" font-family="arial" font-size="12px" text-anchor="middle" transform="rotate(90, 50, 175.0)">G</text><text x="-10" y="209.0" font-family="arial" font-size="12px" text-anchor="middle" transform="rotate(90, -10, 205.0)">6</text>
<circle cx="90" cy="205.0" r="8.0" stroke="magenta" fill="white" /><text x="90" y="209.0" fill="magenta" font-family="arial" font-size="12px" text-anchor="middle" transform="rotate(90, 90, 205.0)">F</text><text x="-10" y="239.0" font-family="arial" font-size="12px" text-anchor="middle" transform="rotate(90, -10, 235.0)">7</text>
<circle cx="10" cy="235.0" r="8.0" stroke="black" fill="white" /><text x="10" y="239.0" fill="black" font-family="arial" font-size="12px" text-anchor="middle" transform="rotate(90, 10, 235.0)">B</text><circle cx="70" cy="235.0" r="8.0" stroke="green" fill="white" /><text x="70" y="239.0" fill="green" font-family="arial" font-size="12px" text-anchor="middle" transform="rotate(90, 70, 235.0)">D</text><circle cx="110" cy="235.0" r="8.0" stroke="black" fill="white" /><text x="110" y="239.0" fill="black" font-family="arial" font-size="12px" text-anchor="middle" transform="rotate(90, 110, 235.0)">B</text><text x="-10" y="269.0" font-family="arial" font-size="12px" text-anchor="middle" transform="rotate(90, -10, 265.0)">8</text>
<circle cx="30" cy="265.0" r="8.0" stroke="magenta" fill="white" /><text x="30" y="269.0" fill="magenta" font-family="arial" font-size="12px" text-anchor="middle" transform="rotate(90, 30, 265.0)">F</text><circle cx="90" cy="265.0" r="8.0" stroke="red" fill="white" /><text x="90" y="269.0" fill="red" font-family="arial" font-size="12px" text-anchor="middle" transform="rotate(90, 90, 265.0)">G</text><text x="-10" y="299.0" font-family="arial" font-size="12px" text-anchor="middle" transform="rotate(90, -10, 295.0)">9</text>
<circle cx="50" cy="295.0" r="8.0" stroke="black" fill="white" /><text x="50" y="299.0" fill="black" font-family="arial" font-size="12px" text-anchor="middle" transform="rotate(90, 50, 295.0)">B</text><text x="-10" y="329.0" font-family="arial" font-size="12px" text-anchor="middle" transform="rotate(90, -10, 325.0)">10</text>
<circle cx="10" cy="325.0" r="8.0" stroke="green" fill="white" /><text x="10" y="329.0" fill="green" font-family="arial" font-size="12px" text-anchor="middle" transform="rotate(90, 10, 325.0)">D</text><circle cx="30" cy="325.0" r="8.0" stroke="red" fill="white" /><text x="30" y="329.0" fill="red" font-family="arial" font-size="12px" text-anchor="middle" transform="rotate(90, 30, 325.0)">G</text><circle cx="70" cy="325.0" r="8.0" stroke="magenta" fill="white" /><text x="70" y="329.0" fill="magenta" font-family="arial" font-size="12px" text-anchor="middle" transform="rotate(90, 70, 325.0)">F</text><circle cx="110" cy="325.0" r="8.0" stroke="green" fill="white" /><text x="110" y="329.0" fill="green" font-family="arial" font-size="12px" text-anchor="middle" transform="rotate(90, 110, 325.0)">D</text><text x="-10" y="359.0" font-family="arial" font-size="12px" text-anchor="middle" transform="rotate(90, -10, 355.0)">11</text>
<text x="-10" y="389.0" font-family="arial" font-size="12px" text-anchor="middle" transform="rotate(90, -10, 385.0)">12</text>
<circle cx="50" cy="385.0" r="8.0" stroke="green" fill="white" /><text x="50" y="389.0" fill="green" font-family="arial" font-size="12px" text-anchor="middle" transform="rotate(90, 50, 385.0)">D</text><circle cx="70" cy="385.0" r="8.0" stroke="red" fill="white" /><text x="70" y="389.0" fill="red" font-family="arial" font-size="12px" text-anchor="middle" transform="rotate(90, 70, 385.0)">G</text><circle cx="90" cy="385.0" r="8.0" stroke="black" fill="white" /><text x="90" y="389.0" fill="black" font-family="arial" font-size="12px" text-anchor="middle" transform="rotate(90, 90, 385.0)">B</text><text x="-10" y="419.0" font-family="arial" font-size="12px" text-anchor="middle" transform="rotate(90, -10, 415.0)">13</text>
<circle cx="10" cy="415.0" r="8.0" stroke="magenta" fill="white" /><text x="10" y="419.0" fill="magenta" font-family="arial" font-size="12px" text-anchor="middle" transform="rotate(90, 10, 415.0)">F</text><circle cx="110" cy="415.0" r="8.0" stroke="magenta" fill="white" /><text x="110" y="419.0" fill="magenta" font-family="arial" font-size="12px" text-anchor="middle" transform="rotate(90, 110, 415.0)">F</text><text x="-10" y="449.0" font-family="arial" font-size="12px" text-anchor="middle" transform="rotate(90, -10, 445.0)">14</text>
<circle cx="30" cy="445.0" r="8.0" stroke="black" fill="white" /><text x="30" y="449.0" fill="black" font-family="arial" font-size="12px" text-anchor="middle" transform="rotate(90, 30, 445.0)">B</text><text x="-10" y="479.0" font-family="arial" font-size="12px" text-anchor="middle" transform="rotate(90, -10, 475.0)">15</text>
<circle cx="10" cy="475.0" r="8.0" stroke="red" fill="white" /><text x="10" y="479.0" fill="red" font-family="arial" font-size="12px" text-anchor="middle" transform="rotate(90, 10, 475.0)">G</text><circle cx="50" cy="475.0" r="8.0" stroke="magenta" fill="white" /><text x="50" y="479.0" fill="magenta" font-family="arial" font-size="12px" text-anchor="middle" transform="rotate(90, 50, 475.0)">F</text><circle cx="90" cy="475.0" r="8.0" stroke="green" fill="white" /><text x="90" y="479.0" fill="green" font-family="arial" font-size="12px" text-anchor="middle" transform="rotate(90, 90, 475.0)">D</text><circle cx="110" cy="475.0" r="8.0" stroke="red" fill="white" /><text x="110" y="479.0" fill="red" font-family="arial" font-size="12px" text-anchor="middle" transform="rotate(90, 110, 475.0)">G</text></g></svg>